<svg xmlns="http://www.w3.org/2000/svg" xmlns:xlink="http://www.w3.org/1999/xlink" width="143.7" height="55.4" viewBox="0 0 143.7 55.4">
  <defs>
    <linearGradient id="linear-gradient" x1="0.337" y1="1.003" x2="0.337" y2="0.256" gradientUnits="objectBoundingBox">
      <stop offset="0" stop-color="#fcdc81"/>
      <stop offset="0.054" stop-color="#fcb96d"/>
      <stop offset="0.131" stop-color="#fd8e53"/>
      <stop offset="0.213" stop-color="#fe683d"/>
      <stop offset="0.301" stop-color="#fe472a"/>
      <stop offset="0.396" stop-color="#fe2d1b"/>
      <stop offset="0.5" stop-color="#ff190f"/>
      <stop offset="0.617" stop-color="#ff0b06"/>
      <stop offset="0.76" stop-color="#ff0301"/>
      <stop offset="1" stop-color="red"/>
    </linearGradient>
    <linearGradient id="linear-gradient-2" x1="0.383" y1="1.554" x2="0.383" y2="0.765" xlink:href="#linear-gradient"/>
  </defs>
  <g id="dark_logo" transform="translate(18.5 6.3)">
    <g id="Group_1" data-name="Group 1">
      <g id="Group_8">
        <g id="Group_6">
          <g id="Group_5" opacity="0.5">
            <path id="Path_17" d="M77.7,38.8A51.782,51.782,0,0,1,72,35.7c-2.5-1.5-3.7-3.4-3.4-5.1a3.009,3.009,0,0,1,2.3-2.3,2.2,2.2,0,0,1,.8-.1A4.364,4.364,0,0,1,75,30.1l.3.5.2-.6a3.487,3.487,0,0,1,4.1-2.5,2.682,2.682,0,0,1,2.2,3C81.6,33.7,79.5,36.7,77.7,38.8Zm2.9,1.3c-.8-.4-1.6-.7-2.4-1.1,1.8-2.1,3.9-5.2,4.1-8.5A3.2,3.2,0,0,0,79.6,27a4.227,4.227,0,0,0-4.5,2.4,4.518,4.518,0,0,0-4.4-1.6,3.534,3.534,0,0,0-2.8,2.7c-.3,1.9,1,4,3.7,5.6a61.17,61.17,0,0,0,5.6,3.1c-.9,1-1.6,1.6-1.9,1.9-1.1-.4-7.3-2.8-11.5-6.9-3.3-3.2-4.5-6.7-3.4-9.7a6.982,6.982,0,0,1,6.3-4.3h.6c4.4,0,6.1,2.6,6.2,2.7l.3.4.2-.5a8.588,8.588,0,0,1,9.3-4.7,6.586,6.586,0,0,1,5.1,3.7c1.3,2.8.7,6.7-1.7,10.6A28.427,28.427,0,0,1,80.6,40.1Zm40.9,7.4a91.29,91.29,0,0,1-40.3-7.2,34.964,34.964,0,0,0,6.2-7.6c2.5-4.1,3.1-8.1,1.7-11.1a6.975,6.975,0,0,0-5.5-4,9.131,9.131,0,0,0-9.7,4.6c-.7-.8-2.8-2.8-7-2.6a7.274,7.274,0,0,0-6.8,4.6c-1.2,3.2,0,7,3.5,10.3a36.918,36.918,0,0,0,11.9,7.1l.2.1.1-.1A22.842,22.842,0,0,0,78,39.4c.7.3,1.5.7,2.3,1a32.85,32.85,0,0,1-17,7.8c-10.8,1.6-28.6-1.8-49.1-6.1-19-4-28.6.6-32.7,2.5l.1.3.1.2c4.1-1.9,13.5-6.4,32.3-2.5,17,3.6,32.2,6.5,43.1,6.5a43.034,43.034,0,0,0,6.2-.4,34.491,34.491,0,0,0,17.5-8.1c2.2.9,4.7,1.9,7.5,2.9A89.512,89.512,0,0,0,121.6,48Z" fill="#fff"/>
            <path id="Path_18" d="M77.8,38.7a51.782,51.782,0,0,1-5.7-3.1c-2.5-1.5-3.7-3.4-3.4-5.1A3.009,3.009,0,0,1,71,28.2a2.2,2.2,0,0,1,.8-.1A4.364,4.364,0,0,1,75.1,30l.3.5.2-.6a3.487,3.487,0,0,1,4.1-2.5,2.682,2.682,0,0,1,2.2,3C81.7,33.6,79.6,36.6,77.8,38.7Zm3,1.3c-.8-.4-1.6-.7-2.4-1.1,1.8-2.1,3.9-5.2,4.1-8.5a3.2,3.2,0,0,0-2.7-3.5,4.227,4.227,0,0,0-4.5,2.4,4.518,4.518,0,0,0-4.4-1.6,3.534,3.534,0,0,0-2.8,2.7c-.3,1.9,1,4,3.7,5.6a61.17,61.17,0,0,0,5.6,3.1c-.9,1-1.6,1.6-1.9,1.9-1.1-.4-7.3-2.8-11.5-6.9-3.3-3.2-4.5-6.7-3.4-9.7a6.982,6.982,0,0,1,6.3-4.3h.6c4.4,0,6.1,2.6,6.2,2.7l.3.4.2-.5A8.588,8.588,0,0,1,83.5,18a6.586,6.586,0,0,1,5.1,3.7c1.3,2.8.7,6.7-1.7,10.6A30.5,30.5,0,0,1,80.8,40Zm40.8,7.4a91.289,91.289,0,0,1-40.3-7.2,34.964,34.964,0,0,0,6.2-7.6c2.5-4.1,3.1-8.1,1.7-11.1a6.975,6.975,0,0,0-5.5-4A9.131,9.131,0,0,0,74,22.1c-.7-.8-2.8-2.8-7-2.6a7.274,7.274,0,0,0-6.8,4.6c-1.2,3.2,0,7,3.5,10.3a36.918,36.918,0,0,0,11.9,7.1l.2.1.1-.1a22.842,22.842,0,0,0,2.2-2.2c.7.3,1.5.7,2.3,1a32.85,32.85,0,0,1-17,7.8C52.6,49.7,34.8,46.3,14.3,42c-19-4-28.6.6-32.7,2.5v.4l.1.2c4.1-1.9,13.5-6.4,32.3-2.5,17,3.6,32.2,6.5,43.1,6.5a43.034,43.034,0,0,0,6.2-.4,34.491,34.491,0,0,0,17.5-8.1c2.2.9,4.7,1.9,7.5,2.9A89.512,89.512,0,0,0,121.6,48Z" fill="#fdfdfd"/>
            <path id="Path_19" d="M78,38.5a51.782,51.782,0,0,1-5.7-3.1c-2.5-1.5-3.7-3.4-3.4-5.1A3.009,3.009,0,0,1,71.2,28a2.2,2.2,0,0,1,.8-.1,4.364,4.364,0,0,1,3.3,1.9l.3.5.2-.6a3.487,3.487,0,0,1,4.1-2.5,2.682,2.682,0,0,1,2.2,3C81.9,33.5,79.7,36.5,78,38.5Zm2.9,1.4c-.8-.4-1.6-.7-2.4-1.1,1.8-2.1,3.9-5.2,4.1-8.5a3.2,3.2,0,0,0-2.7-3.5,4.227,4.227,0,0,0-4.5,2.4A4.518,4.518,0,0,0,71,27.6a3.534,3.534,0,0,0-2.8,2.7c-.3,1.9,1,4,3.7,5.6A61.17,61.17,0,0,0,77.5,39c-.9,1-1.6,1.6-1.9,1.9-1.1-.4-7.3-2.8-11.5-6.9-3.3-3.2-4.5-6.7-3.4-9.7A6.982,6.982,0,0,1,67,20h.6c4.4,0,6.1,2.6,6.2,2.7l.3.4.2-.5a8.588,8.588,0,0,1,9.3-4.7,6.586,6.586,0,0,1,5.1,3.7c1.3,2.8.7,6.7-1.7,10.6A30.494,30.494,0,0,1,80.9,39.9Zm40.8,7.4a91.29,91.29,0,0,1-40.3-7.2,34.964,34.964,0,0,0,6.2-7.6c2.5-4.1,3.1-8.1,1.7-11.1a6.975,6.975,0,0,0-5.5-4A9.131,9.131,0,0,0,74.1,22c-.7-.8-2.8-2.8-7-2.6A7.274,7.274,0,0,0,60.3,24c-1.2,3.2,0,7,3.5,10.3a36.918,36.918,0,0,0,11.9,7.1l.2.1.1-.1a22.842,22.842,0,0,0,2.2-2.2c.7.3,1.5.7,2.3,1a32.85,32.85,0,0,1-17,7.8c-10.8,1.6-28.6-1.8-49.1-6.1-19-4-28.6.6-32.7,2.5l.1.3.1.2C-14,43-4.6,38.5,14.2,42.4c17,3.6,32.2,6.5,43.1,6.5a43.034,43.034,0,0,0,6.2-.4A34.491,34.491,0,0,0,81,40.4c2.2.9,4.7,1.9,7.5,2.9a89.512,89.512,0,0,0,33.3,4.5Z" fill="#fafafa"/>
            <path id="Path_20" d="M78.1,38.4a51.782,51.782,0,0,1-5.7-3.1c-2.5-1.5-3.7-3.4-3.4-5.1a3.009,3.009,0,0,1,2.3-2.3,2.2,2.2,0,0,1,.8-.1,4.364,4.364,0,0,1,3.3,1.9l.3.5.2-.6A3.487,3.487,0,0,1,80,27.1a2.682,2.682,0,0,1,2.2,3C82,33.3,79.9,36.4,78.1,38.4ZM81,39.8c-.8-.4-1.6-.7-2.4-1.1,1.8-2.1,3.9-5.2,4.1-8.5A3.2,3.2,0,0,0,80,26.7a4.227,4.227,0,0,0-4.5,2.4,4.518,4.518,0,0,0-4.4-1.6,3.534,3.534,0,0,0-2.8,2.7c-.3,1.9,1,4,3.7,5.6a61.17,61.17,0,0,0,5.6,3.1c-.9,1-1.6,1.6-1.9,1.9-1.1-.4-7.3-2.8-11.5-6.9-3.3-3.2-4.5-6.7-3.4-9.7a6.982,6.982,0,0,1,6.3-4.3h.6c4.4,0,6.1,2.6,6.2,2.7l.3.4.2-.5a8.588,8.588,0,0,1,9.3-4.7,6.586,6.586,0,0,1,5.1,3.7c1.3,2.8.7,6.7-1.7,10.6A30.494,30.494,0,0,1,81,39.8Zm40.9,7.4A91.289,91.289,0,0,1,81.6,40a34.964,34.964,0,0,0,6.2-7.6c2.5-4.1,3.1-8.1,1.7-11.1a6.975,6.975,0,0,0-5.5-4,9.131,9.131,0,0,0-9.7,4.6c-.7-.8-2.8-2.8-7-2.6-3.3.2-5.9,1.9-6.9,4.6-1.2,3.2,0,7,3.5,10.3a36.918,36.918,0,0,0,11.9,7.1l.2.1.1-.1a22.842,22.842,0,0,0,2.2-2.2c.7.3,1.5.7,2.3,1a32.85,32.85,0,0,1-17,7.8c-10.9,1.7-28.7-1.7-49.2-6-19-4-28.6.6-32.7,2.5l.1.3.1.2C-14,43-4.6,38.5,14.2,42.4c17,3.6,32.2,6.5,43.1,6.5a43.034,43.034,0,0,0,6.2-.4A34.491,34.491,0,0,0,81,40.4c2.2.9,4.7,1.9,7.5,2.9a89.512,89.512,0,0,0,33.3,4.5Z" fill="#f8f8f8"/>
            <path id="Path_21" d="M78.2,38.3a51.782,51.782,0,0,1-5.7-3.1c-2.5-1.5-3.7-3.4-3.4-5.1a3.009,3.009,0,0,1,2.3-2.3,2.2,2.2,0,0,1,.8-.1,4.364,4.364,0,0,1,3.3,1.9l.3.5.2-.6A3.487,3.487,0,0,1,80.1,27a2.682,2.682,0,0,1,2.2,3C82.1,33.2,80,36.3,78.2,38.3Zm2.9,1.3c-.8-.4-1.6-.7-2.4-1.1,1.8-2.1,3.9-5.2,4.1-8.5a3.2,3.2,0,0,0-2.7-3.5,4.227,4.227,0,0,0-4.5,2.4,4.518,4.518,0,0,0-4.4-1.6A3.534,3.534,0,0,0,68.4,30c-.3,1.9,1,4,3.7,5.6a61.17,61.17,0,0,0,5.6,3.1c-.9,1-1.6,1.6-1.9,1.9-1.1-.4-7.3-2.8-11.5-6.9C61,30.5,59.8,27,60.9,24a6.982,6.982,0,0,1,6.3-4.3h.6c4.4,0,6.1,2.6,6.2,2.7l.4.5.2-.5a8.588,8.588,0,0,1,9.3-4.7A6.586,6.586,0,0,1,89,21.4c1.3,2.8.7,6.7-1.7,10.6A30.383,30.383,0,0,1,81.1,39.6ZM122,47.1a91.29,91.29,0,0,1-40.3-7.2,34.964,34.964,0,0,0,6.2-7.6c2.5-4.1,3.1-8.1,1.7-11.1a6.975,6.975,0,0,0-5.5-4,9.131,9.131,0,0,0-9.7,4.6c-.7-.8-2.8-2.8-7-2.6a7.274,7.274,0,0,0-6.8,4.6c-1.2,3.2,0,7,3.5,10.3A36.918,36.918,0,0,0,76,41.2l.2.1.1-.1A22.842,22.842,0,0,0,78.5,39c.7.3,1.5.7,2.3,1a32.85,32.85,0,0,1-17,7.8C53,49.4,35.2,46,14.7,41.7c-19-4-28.6.6-32.7,2.5l.1.3.1.2c3.9-1.8,13.4-6.3,32.2-2.4,17,3.6,32.2,6.6,43.1,6.6a43.034,43.034,0,0,0,6.2-.4,34.491,34.491,0,0,0,17.5-8.1c2.2.9,4.7,1.9,7.5,2.9A89.512,89.512,0,0,0,122,47.8Z" fill="#f6f6f6"/>
            <path id="Path_22" d="M78.3,38.2a51.782,51.782,0,0,1-5.7-3.1c-2.5-1.5-3.7-3.4-3.4-5.1a3.009,3.009,0,0,1,2.3-2.3,2.2,2.2,0,0,1,.8-.1,4.364,4.364,0,0,1,3.3,1.9l.3.5.2-.6a3.487,3.487,0,0,1,4.1-2.5,2.682,2.682,0,0,1,2.2,3C82.2,33.1,80.1,36.2,78.3,38.2Zm2.9,1.3c-.8-.4-1.6-.7-2.4-1.1,1.8-2.1,3.9-5.2,4.1-8.5a3.2,3.2,0,0,0-2.7-3.5,4.227,4.227,0,0,0-4.5,2.4,4.518,4.518,0,0,0-4.4-1.6,3.534,3.534,0,0,0-2.8,2.7c-.3,1.9,1,4,3.7,5.6a61.17,61.17,0,0,0,5.6,3.1c-.9,1-1.6,1.6-1.9,1.9-1.1-.4-7.3-2.8-11.5-6.9-3.3-3.2-4.5-6.7-3.4-9.7a6.982,6.982,0,0,1,6.3-4.3h.6c4.4,0,6.1,2.6,6.2,2.7l.3.4.2-.5a8.588,8.588,0,0,1,9.3-4.7A6.586,6.586,0,0,1,89,21.2c1.3,2.8.7,6.7-1.7,10.6A30.494,30.494,0,0,1,81.2,39.5ZM122.1,47a91.289,91.289,0,0,1-40.3-7.2A34.964,34.964,0,0,0,88,32.2c2.5-4.1,3.1-8.1,1.7-11.1a6.975,6.975,0,0,0-5.5-4,9.131,9.131,0,0,0-9.7,4.6c-.7-.8-2.8-2.8-7-2.6a7.274,7.274,0,0,0-6.8,4.6c-1.2,3.2,0,7,3.5,10.3a36.918,36.918,0,0,0,11.9,7.1l.2.1.1-.1a22.842,22.842,0,0,0,2.2-2.2c.7.3,1.5.7,2.3,1a32.85,32.85,0,0,1-17,7.8c-10.8,1.6-28.6-1.8-49.1-6.1-19-4-28.6.6-32.7,2.5l.1.3.1.2c4.1-1.9,13.5-6.4,32.3-2.5,17,3.6,32.2,6.5,43.1,6.5a43.034,43.034,0,0,0,6.2-.4,34.491,34.491,0,0,0,17.5-8.1c2.2.9,4.7,1.9,7.5,2.9a89.512,89.512,0,0,0,33.3,4.5Z" fill="#f4f4f4"/>
            <path id="Path_23" d="M78.4,38.1A51.782,51.782,0,0,1,72.7,35c-2.5-1.5-3.7-3.4-3.4-5.1a3.009,3.009,0,0,1,2.3-2.3,2.2,2.2,0,0,1,.8-.1,4.364,4.364,0,0,1,3.3,1.9l.3.5.2-.6a3.487,3.487,0,0,1,4.1-2.5,2.682,2.682,0,0,1,2.2,3C82.3,33,80.2,36,78.4,38.1Zm2.9,1.3c-.8-.4-1.6-.7-2.4-1.1,1.8-2.1,3.9-5.2,4.1-8.5a3.2,3.2,0,0,0-2.7-3.5,4.227,4.227,0,0,0-4.5,2.4,4.518,4.518,0,0,0-4.4-1.6,3.534,3.534,0,0,0-2.8,2.7c-.3,1.9,1,4,3.7,5.6a61.17,61.17,0,0,0,5.6,3.1c-.9,1-1.6,1.6-1.9,1.9-1.1-.4-7.3-2.8-11.5-6.9-3.3-3.2-4.5-6.7-3.4-9.7a6.982,6.982,0,0,1,6.3-4.3H68c4.4,0,6.1,2.6,6.2,2.7l.3.4.2-.5A8.588,8.588,0,0,1,84,17.4a6.586,6.586,0,0,1,5.1,3.7c1.3,2.8.7,6.7-1.7,10.6A28.427,28.427,0,0,1,81.3,39.4Zm40.9,7.5a91.29,91.29,0,0,1-40.3-7.2,34.964,34.964,0,0,0,6.2-7.6C90.6,28,91.2,24,89.8,21a6.975,6.975,0,0,0-5.5-4,9.131,9.131,0,0,0-9.7,4.6c-.7-.8-2.8-2.8-7-2.6a7.274,7.274,0,0,0-6.8,4.6c-1.2,3.2,0,7,3.5,10.3A36.918,36.918,0,0,0,76.2,41l.2.1v-.2a22.842,22.842,0,0,0,2.2-2.2c.7.3,1.5.7,2.3,1a32.85,32.85,0,0,1-17,7.8c-10.8,1.6-28.6-1.8-49.1-6.1-19-4-28.6.6-32.7,2.5l.1.3.1.2c4.1-1.9,13.5-6.4,32.3-2.5,17,3.6,32.2,6.5,43.1,6.5a43.034,43.034,0,0,0,6.2-.4,34.491,34.491,0,0,0,17.5-8.1c2.2.9,4.7,1.9,7.5,2.9a89.512,89.512,0,0,0,33.3,4.5Z" fill="#f1f1f1"/>
            <path id="Path_24" d="M78.5,38a51.782,51.782,0,0,1-5.7-3.1c-2.5-1.5-3.7-3.4-3.4-5.1a3.009,3.009,0,0,1,2.3-2.3,2.2,2.2,0,0,1,.8-.1,4.364,4.364,0,0,1,3.3,1.9l.3.5.2-.6a3.487,3.487,0,0,1,4.1-2.5,2.682,2.682,0,0,1,2.2,3C82.4,32.9,80.3,35.9,78.5,38Zm3,1.3c-.8-.4-1.6-.7-2.4-1.1,1.8-2.1,3.9-5.2,4.1-8.5a3.2,3.2,0,0,0-2.7-3.5A4.227,4.227,0,0,0,76,28.6,4.518,4.518,0,0,0,71.6,27a3.534,3.534,0,0,0-2.8,2.7c-.3,1.9,1,4,3.7,5.6a61.17,61.17,0,0,0,5.6,3.1c-.9,1-1.6,1.6-1.9,1.9-1.1-.4-7.3-2.8-11.5-6.9-3.3-3.2-4.5-6.7-3.4-9.7a6.982,6.982,0,0,1,6.3-4.3h.6c4.4,0,6.1,2.6,6.2,2.7l.3.4.2-.5a8.588,8.588,0,0,1,9.3-4.7A6.586,6.586,0,0,1,89.3,21c1.3,2.8.7,6.7-1.7,10.6A30.494,30.494,0,0,1,81.5,39.3Zm40.8,7.4A91.29,91.29,0,0,1,82,39.5a34.964,34.964,0,0,0,6.2-7.6c2.5-4.1,3.1-8.1,1.7-11.1a6.975,6.975,0,0,0-5.5-4,9.131,9.131,0,0,0-9.7,4.6c-.7-.8-2.8-2.8-7-2.6a7.274,7.274,0,0,0-6.8,4.6c-1.2,3.2,0,7,3.5,10.3a36.918,36.918,0,0,0,11.9,7.1l.1.1.1-.1a22.842,22.842,0,0,0,2.2-2.2c.7.3,1.5.7,2.3,1a32.85,32.85,0,0,1-17,7.8C53.2,49,35.4,45.6,14.9,41.3c-19-4-28.6.6-32.7,2.5l.1.3.1.4c4.1-1.9,13.5-6.4,32.3-2.5,17,3.6,32.2,6.5,43.1,6.5a43.034,43.034,0,0,0,6.2-.4A34.491,34.491,0,0,0,81.5,40c2.2.9,4.7,1.9,7.5,2.9a89.512,89.512,0,0,0,33.3,4.5v-.7Z" fill="#efefef"/>
            <path id="Path_25" d="M78.7,37.8A51.782,51.782,0,0,1,73,34.7c-2.5-1.5-3.7-3.4-3.4-5.1a3.009,3.009,0,0,1,2.3-2.3,2.2,2.2,0,0,1,.8-.1A4.364,4.364,0,0,1,76,29.1l.3.5.2-.6a3.487,3.487,0,0,1,4.1-2.5,2.682,2.682,0,0,1,2.2,3C82.6,32.8,80.4,35.8,78.7,37.8Zm2.9,1.4c-.8-.4-1.6-.7-2.4-1.1,1.8-2.1,3.9-5.2,4.1-8.5a3.2,3.2,0,0,0-2.7-3.5,4.227,4.227,0,0,0-4.5,2.4,4.518,4.518,0,0,0-4.4-1.6,3.534,3.534,0,0,0-2.8,2.7c-.3,1.9,1,4,3.7,5.6a61.17,61.17,0,0,0,5.6,3.1c-.9,1-1.6,1.6-1.9,1.9-1.1-.4-7.3-2.8-11.5-6.9-3.3-3.2-4.5-6.7-3.4-9.7a6.982,6.982,0,0,1,6.3-4.3h.6c4.4,0,6.1,2.6,6.2,2.7l.3.4.2-.5a8.588,8.588,0,0,1,9.3-4.7,6.586,6.586,0,0,1,5.1,3.7c1.3,2.8.7,6.7-1.7,10.6A30.494,30.494,0,0,1,81.6,39.2Zm40.8,7.4a91.289,91.289,0,0,1-40.3-7.2,34.964,34.964,0,0,0,6.2-7.6c2.5-4.1,3.1-8.1,1.7-11.1a6.975,6.975,0,0,0-5.5-4,9.131,9.131,0,0,0-9.7,4.6c-.7-.8-2.8-2.8-7-2.6A7.274,7.274,0,0,0,61,23.3c-1.2,3.2,0,7,3.5,10.3a36.918,36.918,0,0,0,11.9,7.1l.2.1.1-.1a22.842,22.842,0,0,0,2.2-2.2c.7.3,1.5.7,2.3,1a32.85,32.85,0,0,1-17,7.8c-10.8,1.6-28.6-1.8-49.1-6.1-19-4-28.6.6-32.7,2.5v.4l.1.2c4.1-1.9,13.6-6.4,32.4-2.4,17,3.6,32.2,6.5,43.1,6.5a43.033,43.033,0,0,0,6.2-.4,34.491,34.491,0,0,0,17.5-8.1c2.2.9,4.7,1.9,7.5,2.9a89.512,89.512,0,0,0,33.3,4.5Z" fill="#ededed"/>
            <path id="Path_26" d="M78.8,37.7a51.782,51.782,0,0,1-5.7-3.1c-2.5-1.5-3.7-3.4-3.4-5.1A3.009,3.009,0,0,1,72,27.2a2.2,2.2,0,0,1,.8-.1A4.364,4.364,0,0,1,76.1,29l.3.5.2-.6a3.487,3.487,0,0,1,4.1-2.5,2.682,2.682,0,0,1,2.2,3C82.7,32.6,80.6,35.7,78.8,37.7Zm2.9,1.4c-.8-.4-1.6-.7-2.4-1.1,1.8-2.1,3.9-5.2,4.1-8.5A3.2,3.2,0,0,0,80.7,26a4.227,4.227,0,0,0-4.5,2.4,4.518,4.518,0,0,0-4.4-1.6A3.534,3.534,0,0,0,69,29.5c-.3,1.9,1,4,3.7,5.6a61.17,61.17,0,0,0,5.6,3.1c-.9,1-1.6,1.6-1.9,1.9-1.1-.4-7.3-2.8-11.5-6.9-3.3-3.2-4.5-6.7-3.4-9.7a6.982,6.982,0,0,1,6.3-4.3h.6c4.4,0,6.1,2.6,6.2,2.7l.3.4.2-.5a8.588,8.588,0,0,1,9.3-4.7,6.586,6.586,0,0,1,5.1,3.7c1.3,2.8.7,6.7-1.7,10.6A30.494,30.494,0,0,1,81.7,39.1Zm40.9,7.4a91.289,91.289,0,0,1-40.3-7.2,34.964,34.964,0,0,0,6.2-7.6c2.5-4.1,3.1-8.1,1.7-11.1a6.975,6.975,0,0,0-5.5-4A9.131,9.131,0,0,0,75,21.2c-.7-.8-2.8-2.8-7-2.6a7.274,7.274,0,0,0-6.8,4.6c-1.2,3.2,0,7,3.5,10.3a36.918,36.918,0,0,0,11.9,7.1l.2.1.1-.1a22.842,22.842,0,0,0,2.2-2.2c.7.3,1.5.7,2.3,1a32.85,32.85,0,0,1-17,7.8c-11,1.7-28.8-1.7-49.3-6-19-4-28.6.6-32.7,2.5l.1.3.1.2c4.1-1.9,13.5-6.4,32.3-2.5,17,3.6,32.2,6.5,43.1,6.5a43.033,43.033,0,0,0,6.2-.4,34.491,34.491,0,0,0,17.5-8.1c2.2.9,4.7,1.9,7.5,2.9a89.512,89.512,0,0,0,33.3,4.5Z" fill="#eaeaea"/>
            <path id="Path_27" d="M78.9,37.6a51.782,51.782,0,0,1-5.7-3.1c-2.5-1.5-3.7-3.4-3.4-5.1a3.009,3.009,0,0,1,2.3-2.3,2.2,2.2,0,0,1,.8-.1,4.364,4.364,0,0,1,3.3,1.9l.3.5.2-.6a3.487,3.487,0,0,1,4.1-2.5,2.682,2.682,0,0,1,2.2,3C82.8,32.5,80.7,35.6,78.9,37.6Zm2.9,1.3c-.8-.4-1.6-.7-2.4-1.1,1.8-2.1,3.9-5.2,4.1-8.5a3.2,3.2,0,0,0-2.7-3.5,4.227,4.227,0,0,0-4.5,2.4,4.518,4.518,0,0,0-4.4-1.6,3.534,3.534,0,0,0-2.8,2.7c-.3,1.9,1,4,3.7,5.6A61.17,61.17,0,0,0,78.4,38c-.9,1-1.6,1.6-1.9,1.9-1.1-.4-7.3-2.8-11.5-6.9-3.3-3.2-4.5-6.7-3.4-9.7A6.982,6.982,0,0,1,67.9,19h.6c4.4,0,6.1,2.6,6.2,2.7l.3.4.2-.5a8.588,8.588,0,0,1,9.3-4.7,6.586,6.586,0,0,1,5.1,3.7c1.3,2.8.7,6.7-1.7,10.6A26.626,26.626,0,0,1,81.8,38.9Zm40.9,7.5a91.29,91.29,0,0,1-40.3-7.2,34.964,34.964,0,0,0,6.2-7.6c2.5-4.1,3.1-8.1,1.7-11.1a6.975,6.975,0,0,0-5.5-4,9.131,9.131,0,0,0-9.7,4.6c-.7-.8-2.8-2.8-7-2.6a7.274,7.274,0,0,0-6.8,4.6c-1.2,3.2,0,7,3.5,10.3a36.918,36.918,0,0,0,11.9,7.1l.2.1.1-.1a22.842,22.842,0,0,0,2.2-2.2c.7.3,1.5.7,2.3,1a32.85,32.85,0,0,1-17,7.8C53.7,48.7,35.9,45.3,15.4,41c-19-4-28.6.6-32.7,2.5l-.1.4.1.2c4.1-1.9,13.5-6.4,32.3-2.5,17,3.6,32.2,6.5,43.1,6.5a43.033,43.033,0,0,0,6.2-.4,34.491,34.491,0,0,0,17.5-8.1c2.2.9,4.7,1.9,7.5,2.9A89.512,89.512,0,0,0,122.6,47Z" fill="#e8e8e8"/>
            <path id="Path_28" d="M79,37.5a51.782,51.782,0,0,1-5.7-3.1c-2.5-1.5-3.7-3.4-3.4-5.1A3.009,3.009,0,0,1,72.2,27a2.2,2.2,0,0,1,.8-.1,4.364,4.364,0,0,1,3.3,1.9l.3.5.2-.6a3.487,3.487,0,0,1,4.1-2.5,2.682,2.682,0,0,1,2.2,3C82.9,32.4,80.8,35.5,79,37.5Zm2.9,1.3c-.8-.4-1.6-.7-2.4-1.1,1.8-2.1,3.9-5.2,4.1-8.5a3.2,3.2,0,0,0-2.7-3.5,4.227,4.227,0,0,0-4.5,2.4A4.518,4.518,0,0,0,72,26.5a3.534,3.534,0,0,0-2.8,2.7c-.3,1.9,1,4,3.7,5.6a61.17,61.17,0,0,0,5.6,3.1c-.9,1-1.6,1.6-1.9,1.9-1.1-.4-7.3-2.8-11.5-6.9-3.3-3.2-4.5-6.7-3.4-9.7A6.982,6.982,0,0,1,68,18.9h.6c4.4,0,6.1,2.6,6.2,2.7l.3.4.2-.5a8.588,8.588,0,0,1,9.3-4.7,6.586,6.586,0,0,1,5.1,3.7c1.3,2.8.7,6.7-1.7,10.6A28.427,28.427,0,0,1,81.9,38.8Zm40.9,7.5a91.289,91.289,0,0,1-40.3-7.2,34.964,34.964,0,0,0,6.2-7.6c2.5-4.1,3.1-8.1,1.7-11.1a6.975,6.975,0,0,0-5.5-4A9.131,9.131,0,0,0,75.2,21c-.7-.8-2.8-2.8-7-2.6A7.274,7.274,0,0,0,61.4,23c-1.2,3.2,0,7,3.5,10.3a36.918,36.918,0,0,0,11.9,7.1l.2.1.1-.1a22.842,22.842,0,0,0,2.2-2.2c.7.3,1.5.7,2.3,1a32.85,32.85,0,0,1-17,7.8C53.8,48.6,36,45.2,15.5,40.9c-19-4-28.6.6-32.7,2.5l.1.3.1.2c4.1-1.9,13.5-6.4,32.3-2.5,17,3.6,32.2,6.5,43.1,6.5a43.034,43.034,0,0,0,6.2-.4,34.491,34.491,0,0,0,17.5-8.1c2.2.9,4.7,1.9,7.5,2.9a89.512,89.512,0,0,0,33.3,4.5Z" fill="#e6e6e6"/>
            <path id="Path_29" d="M79.1,37.4a51.782,51.782,0,0,1-5.7-3.1c-2.5-1.5-3.7-3.4-3.4-5.1a3.009,3.009,0,0,1,2.3-2.3,2.2,2.2,0,0,1,.8-.1,4.364,4.364,0,0,1,3.3,1.9l.3.5.2-.6A3.487,3.487,0,0,1,81,26.1a2.682,2.682,0,0,1,2.2,3C83,32.3,80.9,35.4,79.1,37.4ZM82,38.7c-.8-.4-1.6-.7-2.4-1.1,1.8-2.1,3.9-5.2,4.1-8.5A3.2,3.2,0,0,0,81,25.6,4.227,4.227,0,0,0,76.5,28a4.518,4.518,0,0,0-4.4-1.6,3.534,3.534,0,0,0-2.8,2.7c-.3,1.9,1,4,3.7,5.6a61.17,61.17,0,0,0,5.6,3.1c-.9,1-1.6,1.6-1.9,1.9-1.1-.4-7.3-2.8-11.5-6.9-3.3-3.2-4.5-6.7-3.4-9.7a6.982,6.982,0,0,1,6.3-4.3h.6c4.4,0,6.1,2.6,6.2,2.7l.5.4.2-.5a8.588,8.588,0,0,1,9.3-4.7A6.586,6.586,0,0,1,90,20.4c1.3,2.8.7,6.7-1.7,10.6A31.253,31.253,0,0,1,82,38.7Zm40.9,7.5A91.289,91.289,0,0,1,82.6,39a34.964,34.964,0,0,0,6.2-7.6c2.5-4.1,3.1-8.1,1.7-11.1a6.975,6.975,0,0,0-5.5-4,9.131,9.131,0,0,0-9.7,4.6c-.7-.8-2.8-2.8-7-2.6a7.409,7.409,0,0,0-6.9,4.6c-1.2,3.2,0,7,3.5,10.3a36.918,36.918,0,0,0,11.9,7.1l.2.1.1-.1a22.842,22.842,0,0,0,2.2-2.2c.7.3,1.5.7,2.3,1a32.85,32.85,0,0,1-17,7.8C53.8,48.5,36,45.1,15.5,40.8c-19-4-28.6.6-32.7,2.5l.1.3.1.3c4.1-1.9,13.5-6.4,32.3-2.5,17,3.6,32.2,6.5,43.1,6.5a43.034,43.034,0,0,0,6.2-.4,34.491,34.491,0,0,0,17.5-8.1c2.2.9,4.7,1.9,7.5,2.9a89.512,89.512,0,0,0,33.3,4.5v-.6Z" fill="#e4e4e4"/>
            <path id="Path_30" d="M79.3,37.3a51.782,51.782,0,0,1-5.7-3.1c-2.5-1.5-3.7-3.4-3.4-5.1a3.009,3.009,0,0,1,2.3-2.3,2.2,2.2,0,0,1,.8-.1,4.364,4.364,0,0,1,3.3,1.9l.3.5.2-.6A3.487,3.487,0,0,1,81.2,26a2.682,2.682,0,0,1,2.2,3C83.1,32.2,81,35.2,79.3,37.3Zm2.9,1.3c-.8-.4-1.6-.7-2.4-1.1,1.8-2.1,3.9-5.2,4.1-8.5a3.2,3.2,0,0,0-2.7-3.5,4.227,4.227,0,0,0-4.5,2.4,4.518,4.518,0,0,0-4.4-1.6A3.534,3.534,0,0,0,69.5,29c-.3,1.9,1,4,3.7,5.6a61.17,61.17,0,0,0,5.6,3.1c-.9,1-1.6,1.6-1.9,1.9-1.1-.4-7.3-2.8-11.5-6.9C62.1,29.5,60.9,26,62,23a6.982,6.982,0,0,1,6.3-4.3h.6c4.4,0,6.1,2.6,6.2,2.7l.3.4.2-.5a8.588,8.588,0,0,1,9.3-4.7A6.586,6.586,0,0,1,90,20.3c1.3,2.8.7,6.7-1.7,10.6A30.5,30.5,0,0,1,82.2,38.6ZM123,46.1a91.29,91.29,0,0,1-40.3-7.2,34.964,34.964,0,0,0,6.2-7.6c2.5-4.1,3.1-8.1,1.7-11.1a6.975,6.975,0,0,0-5.5-4,9.131,9.131,0,0,0-9.7,4.6c-.7-.8-2.8-2.8-7-2.6a7.274,7.274,0,0,0-6.8,4.6c-1.2,3.2,0,7,3.5,10.3A36.918,36.918,0,0,0,77,40.2l.2.1.1-.1A22.842,22.842,0,0,0,79.5,38c.7.3,1.5.7,2.3,1a32.85,32.85,0,0,1-17,7.8C54,48.4,36.2,45,15.7,40.7c-19-4-28.6.6-32.7,2.5l.1.3.1.2c4.1-1.9,13.5-6.4,32.3-2.5,17,3.6,32.2,6.5,43.1,6.5a43.033,43.033,0,0,0,6.2-.4,34.491,34.491,0,0,0,17.5-8.1c2.2.9,4.7,1.9,7.5,2.9a89.512,89.512,0,0,0,33.3,4.5Z" fill="#e1e1e1"/>
            <path id="Path_31" d="M79.4,37.2a51.782,51.782,0,0,1-5.7-3.1c-2.5-1.5-3.7-3.4-3.4-5.1a3.009,3.009,0,0,1,2.3-2.3,2.2,2.2,0,0,1,.8-.1,4.364,4.364,0,0,1,3.3,1.9l.3.5.2-.6a3.487,3.487,0,0,1,4.1-2.5,2.682,2.682,0,0,1,2.2,3C83.3,32.1,81.1,35.1,79.4,37.2Zm2.9,1.3c-.8-.4-1.6-.7-2.4-1.1,1.8-2.1,3.9-5.2,4.1-8.5a3.2,3.2,0,0,0-2.7-3.5,4.227,4.227,0,0,0-4.5,2.4,4.518,4.518,0,0,0-4.4-1.6,3.534,3.534,0,0,0-2.8,2.7c-.3,1.9,1,4,3.7,5.6a61.17,61.17,0,0,0,5.6,3.1c-.9,1-1.6,1.6-1.9,1.9-1.1-.4-7.3-2.8-11.5-6.9-3.3-3.2-4.5-6.7-3.4-9.7a6.982,6.982,0,0,1,6.3-4.3H69c4.4,0,6.1,2.6,6.2,2.7l.3.4.2-.5A8.588,8.588,0,0,1,85,16.5a6.586,6.586,0,0,1,5.1,3.7c1.3,2.8.7,6.7-1.7,10.6A30.5,30.5,0,0,1,82.3,38.5Zm40.8,7.4a91.289,91.289,0,0,1-40.3-7.2A34.964,34.964,0,0,0,89,31.1C91.5,27,92.1,23,90.7,20a6.975,6.975,0,0,0-5.5-4,9.131,9.131,0,0,0-9.7,4.6c-.7-.8-2.8-2.8-7-2.6a7.274,7.274,0,0,0-6.8,4.6c-1.2,3.2,0,7,3.5,10.3A36.918,36.918,0,0,0,77.1,40l.2.1.1-.1c0-.1,1-.9,2.1-2.1.7.3,1.5.7,2.3,1a32.85,32.85,0,0,1-17,7.8C54,48.3,36.2,44.9,15.7,40.6c-19-4-28.6.6-32.7,2.5l.1.3.1.2c4.1-1.9,13.5-6.4,32.3-2.5,17,3.6,32.2,6.5,43.1,6.5a43.034,43.034,0,0,0,6.2-.4,34.491,34.491,0,0,0,17.5-8.1C84.5,40,87,41,89.8,42a89.512,89.512,0,0,0,33.3,4.5v-.6Z" fill="#dfdfdf"/>
            <path id="Path_32" d="M79.5,37a51.782,51.782,0,0,1-5.7-3.1c-2.5-1.5-3.7-3.4-3.4-5.1a3.009,3.009,0,0,1,2.3-2.3,2.2,2.2,0,0,1,.8-.1,4.364,4.364,0,0,1,3.3,1.9l.3.5.2-.6a3.487,3.487,0,0,1,4.1-2.5,2.682,2.682,0,0,1,2.2,3C83.4,32,81.3,35,79.5,37Zm2.9,1.4c-.8-.4-1.6-.7-2.4-1.1,1.8-2.1,3.9-5.2,4.1-8.5a3.2,3.2,0,0,0-2.7-3.5,4.227,4.227,0,0,0-4.5,2.4,4.518,4.518,0,0,0-4.4-1.6,3.534,3.534,0,0,0-2.8,2.7c-.3,1.9,1,4,3.7,5.6A61.17,61.17,0,0,0,79,37.5c-.9,1-1.6,1.6-1.9,1.9-1.1-.4-7.3-2.8-11.5-6.9-3.3-3.2-4.5-6.7-3.4-9.7a6.982,6.982,0,0,1,6.3-4.3h.6c4.4,0,6.1,2.6,6.2,2.7l.3.4.2-.5a8.588,8.588,0,0,1,9.3-4.7,6.586,6.586,0,0,1,5.1,3.7c1.3,2.8.7,6.7-1.7,10.6A30.494,30.494,0,0,1,82.4,38.4Zm40.9,7.4A91.289,91.289,0,0,1,83,38.6,34.964,34.964,0,0,0,89.2,31c2.5-4.1,3.1-8.1,1.7-11.1a6.975,6.975,0,0,0-5.5-4,9.131,9.131,0,0,0-9.7,4.6c-.7-.8-2.8-2.8-7-2.6a7.274,7.274,0,0,0-6.8,4.6c-1.2,3.2,0,7,3.5,10.3a36.918,36.918,0,0,0,11.9,7.1l.2.1-.1-.1a22.842,22.842,0,0,0,2.2-2.2c.7.3,1.5.7,2.3,1a32.85,32.85,0,0,1-17,7.8c-10.8,1.6-28.6-1.8-49.1-6.1-19-4-28.6.6-32.7,2.5l.1.3.2.3c4.1-1.9,13.5-6.4,32.3-2.5,17,3.6,32.2,6.5,43.1,6.5a43.033,43.033,0,0,0,6.2-.4A34.491,34.491,0,0,0,82.5,39c2.2.9,4.7,1.9,7.5,2.9a89.512,89.512,0,0,0,33.3,4.5v-.6Z" fill="#ddd"/>
            <path id="Path_33" d="M79.6,36.9a51.782,51.782,0,0,1-5.7-3.1c-2.5-1.5-3.7-3.4-3.4-5.1a3.009,3.009,0,0,1,2.3-2.3,2.2,2.2,0,0,1,.8-.1,4.364,4.364,0,0,1,3.3,1.9l.3.5.2-.6a3.487,3.487,0,0,1,4.1-2.5,2.682,2.682,0,0,1,2.2,3C83.5,31.8,81.4,34.9,79.6,36.9Zm2.9,1.4c-.8-.4-1.6-.7-2.4-1.1,1.8-2.1,3.9-5.2,4.1-8.5a3.2,3.2,0,0,0-2.7-3.5A4.227,4.227,0,0,0,77,27.6,4.518,4.518,0,0,0,72.6,26a3.534,3.534,0,0,0-2.8,2.7c-.3,1.9,1,4,3.7,5.6a61.17,61.17,0,0,0,5.6,3.1c-.9,1-1.6,1.6-1.9,1.9-1.1-.4-7.3-2.8-11.5-6.9-3.3-3.2-4.5-6.7-3.4-9.7a6.982,6.982,0,0,1,6.3-4.3h.6c4.4,0,6.1,2.6,6.2,2.7l.3.4.2-.5a8.588,8.588,0,0,1,9.3-4.7A6.586,6.586,0,0,1,90.3,20c1.3,2.8.7,6.7-1.7,10.6A30.494,30.494,0,0,1,82.5,38.3Zm40.9,7.4a91.289,91.289,0,0,1-40.3-7.2,34.964,34.964,0,0,0,6.2-7.6c2.5-4.1,3.1-8.1,1.7-11.1a6.975,6.975,0,0,0-5.5-4,9.131,9.131,0,0,0-9.7,4.6c-.7-.8-2.8-2.8-7-2.6A7.274,7.274,0,0,0,62,22.4c-1.2,3.2,0,7,3.5,10.3a36.918,36.918,0,0,0,11.9,7.1v.1l.1-.1a22.842,22.842,0,0,0,2.2-2.2c.7.3,1.5.7,2.3,1a32.85,32.85,0,0,1-17,7.8C54.2,48,36.4,44.6,15.9,40.3c-19-4-28.6.6-32.7,2.5l.1.3.1.2c4.1-1.9,13.5-6.4,32.3-2.5,17,3.6,32.2,6.5,43.1,6.5a43.034,43.034,0,0,0,6.2-.4,34.491,34.491,0,0,0,17.5-8.1c2.2.9,4.7,1.9,7.5,2.9a89.512,89.512,0,0,0,33.3,4.5Z" fill="#dadada"/>
            <path id="Path_34" d="M79.7,36.8A51.782,51.782,0,0,1,74,33.7c-2.5-1.5-3.7-3.4-3.4-5.1a3.009,3.009,0,0,1,2.3-2.3,2.2,2.2,0,0,1,.8-.1A4.364,4.364,0,0,1,77,28.1l.3.5.2-.6a3.487,3.487,0,0,1,4.1-2.5,2.682,2.682,0,0,1,2.2,3C83.6,31.7,81.5,34.8,79.7,36.8Zm2.9,1.3c-.8-.4-1.6-.7-2.4-1.1,1.8-2.1,3.9-5.2,4.1-8.5A3.2,3.2,0,0,0,81.6,25a4.227,4.227,0,0,0-4.5,2.4,4.518,4.518,0,0,0-4.4-1.6,3.534,3.534,0,0,0-2.8,2.7c-.3,1.9,1,4,3.7,5.6a61.17,61.17,0,0,0,5.6,3.1c-.9,1-1.6,1.6-1.9,1.9-1.1-.4-7.3-2.8-11.5-6.9-3.3-3.2-4.5-6.7-3.4-9.7a6.982,6.982,0,0,1,6.3-4.3h.6c4.4,0,6.1,2.6,6.2,2.7l.3.4.2-.5a8.588,8.588,0,0,1,9.3-4.7,6.586,6.586,0,0,1,5.1,3.7c1.3,2.8.7,6.7-1.7,10.6A26.626,26.626,0,0,1,82.6,38.1Zm40.9,7.5a91.29,91.29,0,0,1-40.3-7.2,34.964,34.964,0,0,0,6.2-7.6c2.5-4.1,3.1-8.1,1.7-11.1a6.975,6.975,0,0,0-5.5-4,9.131,9.131,0,0,0-9.7,4.6c-.7-.8-2.8-2.8-7-2.6a7.274,7.274,0,0,0-6.8,4.6c-1.2,3.2,0,7,3.5,10.3a36.918,36.918,0,0,0,11.9,7.1l.2.1.1-.1A22.842,22.842,0,0,0,80,37.5c.7.3,1.5.7,2.3,1a32.85,32.85,0,0,1-17,7.8c-10.8,1.6-28.6-1.8-49.1-6.1-19-4-28.6.6-32.7,2.5l.1.3.1.2c4.1-1.9,13.5-6.4,32.3-2.5,17,3.6,32.2,6.5,43.1,6.5a43.034,43.034,0,0,0,6.2-.4,34.491,34.491,0,0,0,17.5-8.1c2.2.9,4.7,1.9,7.5,2.9a89.512,89.512,0,0,0,33.3,4.5Z" fill="#d8d8d8"/>
            <path id="Path_35" d="M79.8,36.7a51.782,51.782,0,0,1-5.7-3.1c-2.5-1.5-3.7-3.4-3.4-5.1A3.009,3.009,0,0,1,73,26.2a2.2,2.2,0,0,1,.8-.1A4.364,4.364,0,0,1,77.1,28l.3.5.2-.6a3.487,3.487,0,0,1,4.1-2.5,2.682,2.682,0,0,1,2.2,3C83.7,31.6,81.6,34.7,79.8,36.7ZM82.7,38c-.8-.4-1.6-.7-2.4-1.1,1.8-2.1,3.9-5.2,4.1-8.5a3.2,3.2,0,0,0-2.7-3.5,4.227,4.227,0,0,0-4.5,2.4,4.518,4.518,0,0,0-4.4-1.6A3.534,3.534,0,0,0,70,28.4c-.3,1.9,1,4,3.7,5.6a61.17,61.17,0,0,0,5.6,3.1c-.9,1-1.6,1.6-1.9,1.9-1.1-.4-7.3-2.8-11.5-6.9-3.3-3.2-4.5-6.7-3.4-9.7a6.982,6.982,0,0,1,6.3-4.3h.6c4.4,0,6.1,2.6,6.2,2.7l.3.4.2-.5A8.588,8.588,0,0,1,85.4,16a6.586,6.586,0,0,1,5.1,3.7c1.3,2.8.7,6.7-1.7,10.6A28.427,28.427,0,0,1,82.7,38Zm40.9,7.5a91.289,91.289,0,0,1-40.3-7.2,34.964,34.964,0,0,0,6.2-7.6c2.5-4.1,3.1-8.1,1.7-11.1a6.975,6.975,0,0,0-5.5-4A9.131,9.131,0,0,0,76,20.2c-.7-.8-2.8-2.8-7-2.6a7.274,7.274,0,0,0-6.8,4.6c-1.2,3.2,0,7,3.5,10.3a36.918,36.918,0,0,0,11.9,7.1l.2.1.1-.1a22.842,22.842,0,0,0,2.2-2.2c.7.3,1.5.7,2.3,1a32.85,32.85,0,0,1-17,7.8c-11,1.7-28.8-1.7-49.3-6-19-4-28.6.6-32.7,2.5l.2.2.1.2c4.1-1.9,13.5-6.4,32.3-2.5,17,3.6,32.2,6.5,43.1,6.5a43.033,43.033,0,0,0,6.2-.4,34.491,34.491,0,0,0,17.5-8.1c2.2.9,4.7,1.9,7.5,2.9A89.512,89.512,0,0,0,123.6,46Z" fill="#d6d6d6"/>
            <path id="Path_36" d="M80,36.6a51.782,51.782,0,0,1-5.7-3.1c-2.5-1.5-3.7-3.4-3.4-5.1a3.009,3.009,0,0,1,2.3-2.3A1.949,1.949,0,0,1,74,26a4.364,4.364,0,0,1,3.3,1.9l.3.5.2-.6a3.487,3.487,0,0,1,4.1-2.5,2.682,2.682,0,0,1,2.2,3C83.8,31.5,81.7,34.5,80,36.6Zm2.9,1.3c-.8-.4-1.6-.7-2.4-1.1,1.8-2.1,3.9-5.2,4.1-8.5a3.2,3.2,0,0,0-2.7-3.5,4.227,4.227,0,0,0-4.5,2.4A4.518,4.518,0,0,0,73,25.6a3.534,3.534,0,0,0-2.8,2.7c-.3,1.9,1,4,3.7,5.6A61.17,61.17,0,0,0,79.5,37c-.9,1-1.6,1.6-1.9,1.9-1.1-.4-7.3-2.8-11.5-6.9-3.3-3.2-4.5-6.7-3.4-9.7A6.982,6.982,0,0,1,69,18h.6c4.4,0,6.1,2.6,6.2,2.7l.3.4.2-.5a8.588,8.588,0,0,1,9.3-4.7,6.586,6.586,0,0,1,5.1,3.7c1.3,2.8.7,6.7-1.7,10.6A30.494,30.494,0,0,1,82.9,37.9Zm40.8,7.5a89.976,89.976,0,0,1-40.3-7.3,34.964,34.964,0,0,0,6.2-7.6c2.5-4.1,3.1-8.1,1.7-11.1a6.975,6.975,0,0,0-5.5-4A9.131,9.131,0,0,0,76.1,20c-.7-.8-2.8-2.8-7-2.6A7.274,7.274,0,0,0,62.3,22c-1.2,3.2,0,7,3.5,10.3a36.918,36.918,0,0,0,11.9,7.1l.2.1.1-.1a22.842,22.842,0,0,0,2.2-2.2c.7.3,1.5.7,2.3,1a32.85,32.85,0,0,1-17,7.8c-10.8,1.6-28.6-1.8-49.1-6.1-19-4-28.6.6-32.7,2.5l.1.3.1.2C-12,41-2.6,36.5,16.2,40.4c17,3.6,32.2,6.5,43.1,6.5a43.034,43.034,0,0,0,6.2-.4A34.491,34.491,0,0,0,83,38.4c2.2.9,4.7,1.9,7.5,2.9a89.512,89.512,0,0,0,33.3,4.5Z" fill="#d3d3d3"/>
            <path id="Path_37" d="M80.1,36.5a51.782,51.782,0,0,1-5.7-3.1c-2.5-1.5-3.7-3.4-3.4-5.1A3.009,3.009,0,0,1,73.3,26a2.2,2.2,0,0,1,.8-.1,4.364,4.364,0,0,1,3.3,1.9l.3.5.2-.6A3.487,3.487,0,0,1,82,25.2a2.682,2.682,0,0,1,2.2,3C84,31.4,81.8,34.4,80.1,36.5ZM83,37.8c-.8-.4-1.6-.7-2.4-1.1,1.8-2.1,3.9-5.2,4.1-8.5A3.2,3.2,0,0,0,82,24.7a4.227,4.227,0,0,0-4.5,2.4,4.518,4.518,0,0,0-4.4-1.6,3.534,3.534,0,0,0-2.8,2.7c-.3,1.9,1,4,3.7,5.6a61.17,61.17,0,0,0,5.6,3.1c-.9,1-1.6,1.6-1.9,1.9-1-.4-7.3-2.9-11.5-6.9-3.3-3.2-4.5-6.7-3.4-9.7a6.982,6.982,0,0,1,6.3-4.3h.6c4.4,0,6.1,2.6,6.2,2.7l.3.4.2-.5a8.588,8.588,0,0,1,9.3-4.7,6.586,6.586,0,0,1,5.1,3.7c1.3,2.8.7,6.7-1.7,10.6A30.494,30.494,0,0,1,83,37.8Zm40.8,7.4A91.289,91.289,0,0,1,83.5,38a34.964,34.964,0,0,0,6.2-7.6c2.5-4.1,3.1-8.1,1.7-11.1a6.975,6.975,0,0,0-5.5-4,9.131,9.131,0,0,0-9.7,4.6c-.7-.8-2.8-2.8-7-2.6a7.274,7.274,0,0,0-6.8,4.6c-1.2,3.2,0,7,3.5,10.3a36.918,36.918,0,0,0,11.9,7.1l.2.1.1-.1a22.842,22.842,0,0,0,2.2-2.2c.7.3,1.5.7,2.3,1a32.85,32.85,0,0,1-17,7.8c-10.9,1.8-28.7-1.7-49.2-6-19-4-28.6.6-32.7,2.5l.1.3.1.2C-12,41-2.6,36.5,16.2,40.4c17,3.6,32.2,6.5,43.1,6.5a43.033,43.033,0,0,0,6.2-.4A34.491,34.491,0,0,0,83,38.4c2.2.9,4.7,1.9,7.5,2.9a89.512,89.512,0,0,0,33.3,4.5v-.6Z" fill="#d1d1d1"/>
            <path id="Path_38" d="M80.2,36.3a51.782,51.782,0,0,1-5.7-3.1c-2.5-1.5-3.7-3.4-3.4-5.1a3.009,3.009,0,0,1,2.3-2.3,2.2,2.2,0,0,1,.8-.1,4.364,4.364,0,0,1,3.3,1.9l.3.5.2-.6A3.487,3.487,0,0,1,82.1,25a2.682,2.682,0,0,1,2.2,3C84.1,31.3,82,34.3,80.2,36.3Zm2.9,1.4c-.8-.4-1.6-.7-2.4-1.1,1.8-2.1,3.9-5.2,4.1-8.5a3.2,3.2,0,0,0-2.7-3.5A4.227,4.227,0,0,0,77.6,27a4.518,4.518,0,0,0-4.4-1.6,3.534,3.534,0,0,0-2.8,2.7c-.3,1.9,1,4,3.7,5.6a61.17,61.17,0,0,0,5.6,3.1c-.9,1-1.6,1.6-1.9,1.9-1.1-.4-7.3-2.8-11.5-6.9-3.3-3.2-4.5-6.7-3.4-9.7a6.982,6.982,0,0,1,6.3-4.3h.6c4.4,0,6.1,2.6,6.2,2.7l.4.4.2-.5a8.588,8.588,0,0,1,9.3-4.7A6.586,6.586,0,0,1,91,19.4c1.3,2.8.7,6.7-1.7,10.6A38.093,38.093,0,0,1,83.1,37.7ZM124,45.1a91.29,91.29,0,0,1-40.3-7.2,34.964,34.964,0,0,0,6.2-7.6c2.5-4.1,3.1-8.1,1.7-11.1a6.975,6.975,0,0,0-5.5-4,9.131,9.131,0,0,0-9.7,4.6c-.7-.8-2.8-2.8-7-2.6a7.274,7.274,0,0,0-6.8,4.6c-1.2,3.2,0,7,3.5,10.3A36.918,36.918,0,0,0,78,39.2l.2.1.1-.1A22.842,22.842,0,0,0,80.5,37c.7.3,1.5.7,2.3,1a32.85,32.85,0,0,1-17,7.8C55,47.4,37.2,44,16.7,39.7c-19-4-28.6.6-32.7,2.5l.1.3.1.2c3.9-1.8,13.4-6.3,32.2-2.3,17,3.5,32.1,6.5,43.1,6.5a43.033,43.033,0,0,0,6.2-.4,34.491,34.491,0,0,0,17.5-8.1c2.2.9,4.7,1.9,7.5,2.9A89.512,89.512,0,0,0,124,45.8Z" fill="#cfcfcf"/>
            <path id="Path_39" d="M80.3,36.2a51.782,51.782,0,0,1-5.7-3.1c-2.5-1.5-3.7-3.4-3.4-5.1a3.009,3.009,0,0,1,2.3-2.3,2.2,2.2,0,0,1,.8-.1,4.364,4.364,0,0,1,3.3,1.9l.3.5.2-.6a3.487,3.487,0,0,1,4.1-2.5,2.682,2.682,0,0,1,2.2,3C84.2,31.1,82.1,34.2,80.3,36.2Zm2.9,1.4c-.8-.4-1.6-.7-2.4-1.1,1.8-2.1,3.9-5.2,4.1-8.5a3.2,3.2,0,0,0-2.7-3.5,4.227,4.227,0,0,0-4.5,2.4,4.518,4.518,0,0,0-4.4-1.6A3.534,3.534,0,0,0,70.5,28c-.3,1.9,1,4,3.7,5.6a61.17,61.17,0,0,0,5.6,3.1c-.9,1-1.6,1.6-1.9,1.9-1.1-.4-7.3-2.8-11.5-6.9C63.1,28.5,61.9,25,63,22a6.982,6.982,0,0,1,6.3-4.3h.6c4.4,0,6.1,2.6,6.2,2.7l.3.4.2-.5a8.588,8.588,0,0,1,9.3-4.7A6.586,6.586,0,0,1,91,19.3c1.3,2.8.7,6.7-1.7,10.6A30.5,30.5,0,0,1,83.2,37.6ZM124.1,45a91.289,91.289,0,0,1-40.3-7.2A34.964,34.964,0,0,0,90,30.2c2.5-4.1,3.1-8.1,1.7-11.1a6.975,6.975,0,0,0-5.5-4,9.131,9.131,0,0,0-9.7,4.6c-.7-.8-2.8-2.8-7-2.6a7.274,7.274,0,0,0-6.8,4.6c-1.2,3.2,0,7,3.5,10.3a36.918,36.918,0,0,0,11.9,7.1l.2.1.1-.1a22.842,22.842,0,0,0,2.2-2.2c.7.3,1.5.7,2.3,1a32.85,32.85,0,0,1-17,7.8c-10.8,1.6-28.6-1.8-49.1-6.1-19-4-28.6.6-32.7,2.5l.1.3.1.2c4.1-1.9,13.5-6.4,32.3-2.5,17,3.6,32.2,6.5,43.1,6.5a43.034,43.034,0,0,0,6.2-.4,34.491,34.491,0,0,0,17.5-8.1c2.2.9,4.7,1.9,7.5,2.9a89.512,89.512,0,0,0,33.3,4.5Z" fill="#cdcdcd"/>
            <path id="Path_40" d="M80.4,36.1A51.782,51.782,0,0,1,74.7,33c-2.5-1.5-3.7-3.4-3.4-5.1a3.009,3.009,0,0,1,2.3-2.3,2.2,2.2,0,0,1,.8-.1,4.364,4.364,0,0,1,3.3,1.9l.3.5.2-.6a3.487,3.487,0,0,1,4.1-2.5,2.682,2.682,0,0,1,2.2,3C84.3,31,82.2,34.1,80.4,36.1Zm2.9,1.3c-.8-.4-1.6-.7-2.4-1.1,1.8-2.1,3.9-5.2,4.1-8.5a3.2,3.2,0,0,0-2.7-3.5,4.227,4.227,0,0,0-4.5,2.4,4.518,4.518,0,0,0-4.4-1.6,3.534,3.534,0,0,0-2.8,2.7c-.3,1.9,1,4,3.7,5.6a61.17,61.17,0,0,0,5.6,3.1c-.9,1-1.6,1.6-1.9,1.9-1.1-.4-7.3-2.8-11.5-6.9-3.3-3.2-4.5-6.7-3.4-9.7a6.982,6.982,0,0,1,6.3-4.3H70c4.4,0,6.1,2.6,6.2,2.7l.3.4.2-.5A8.588,8.588,0,0,1,86,15.4a6.586,6.586,0,0,1,5.1,3.7c1.3,2.8.7,6.7-1.7,10.6A26.626,26.626,0,0,1,83.3,37.4Zm40.9,7.5a91.29,91.29,0,0,1-40.3-7.2,34.964,34.964,0,0,0,6.2-7.6C92.6,26,93.2,22,91.8,19a6.975,6.975,0,0,0-5.5-4,9.131,9.131,0,0,0-9.7,4.6c-.7-.8-2.8-2.8-7-2.6a7.274,7.274,0,0,0-6.8,4.6c-1.2,3.2,0,7,3.5,10.3A36.918,36.918,0,0,0,78.2,39l.2.1.1-.1a22.842,22.842,0,0,0,2.2-2.2c.7.3,1.5.7,2.3,1a32.85,32.85,0,0,1-17,7.8c-10.8,1.6-28.6-1.8-49.1-6.1-19-4-28.6.6-32.7,2.5l.1.3.1.2c4.1-1.9,13.5-6.4,32.3-2.5,17,3.6,32.2,6.5,43.1,6.5a43.034,43.034,0,0,0,6.2-.4A34.491,34.491,0,0,0,83.5,38c2.2.9,4.7,1.9,7.5,2.9a89.512,89.512,0,0,0,33.3,4.5Z" fill="#cacaca"/>
            <path id="Path_41" d="M80.5,36a51.782,51.782,0,0,1-5.7-3.1c-2.5-1.5-3.7-3.4-3.4-5.1a3.009,3.009,0,0,1,2.3-2.3,2.2,2.2,0,0,1,.8-.1,4.364,4.364,0,0,1,3.3,1.9l.3.5.2-.6a3.487,3.487,0,0,1,4.1-2.5,2.682,2.682,0,0,1,2.2,3C84.4,30.9,82.3,34,80.5,36Zm2.9,1.3c-.8-.4-1.6-.7-2.4-1.1,1.8-2.1,3.9-5.2,4.1-8.5a3.2,3.2,0,0,0-2.7-3.5,4.227,4.227,0,0,0-4.5,2.4A4.518,4.518,0,0,0,73.5,25a3.534,3.534,0,0,0-2.8,2.7c-.3,1.9,1,4,3.7,5.6A61.17,61.17,0,0,0,80,36.4c-.9,1-1.6,1.6-1.9,1.9-1.1-.4-7.3-2.8-11.5-6.9-3.3-3.2-4.5-6.7-3.4-9.7a6.982,6.982,0,0,1,6.3-4.3h.6c4.4,0,6.1,2.6,6.2,2.7l.3.4.2-.5a8.588,8.588,0,0,1,9.3-4.7A6.586,6.586,0,0,1,91.2,19c1.3,2.8.7,6.7-1.7,10.6A26.626,26.626,0,0,1,83.4,37.3Zm40.9,7.5A91.289,91.289,0,0,1,84,37.6,34.964,34.964,0,0,0,90.2,30c2.5-4.1,3.1-8.1,1.7-11.1a6.975,6.975,0,0,0-5.5-4,9.131,9.131,0,0,0-9.7,4.6c-.7-.8-2.8-2.8-7-2.6a7.274,7.274,0,0,0-6.8,4.6c-1.2,3.2,0,7,3.5,10.3a36.918,36.918,0,0,0,11.9,7.1l.2.1.1-.1a22.842,22.842,0,0,0,2.2-2.2c.7.3,1.5.7,2.3,1a32.85,32.85,0,0,1-17,7.8C55.3,47.1,37.5,43.7,17,39.4c-19-4-28.6.6-32.7,2.5l.1.3v.3c4.1-1.9,13.5-6.4,32.3-2.5,17,3.6,32.2,6.5,43.1,6.5a43.033,43.033,0,0,0,6.2-.4A34.491,34.491,0,0,0,83.5,38c2.2.9,4.7,1.9,7.5,2.9a89.512,89.512,0,0,0,33.3,4.5v-.6Z" fill="#c8c8c8"/>
            <path id="Path_42" d="M80.7,35.9A51.782,51.782,0,0,1,75,32.8c-2.5-1.5-3.7-3.4-3.4-5.1a3.009,3.009,0,0,1,2.3-2.3,2.2,2.2,0,0,1,.8-.1A4.364,4.364,0,0,1,78,27.2l.3.5.2-.6a3.487,3.487,0,0,1,4.1-2.5,2.682,2.682,0,0,1,2.2,3C84.5,30.8,82.4,33.9,80.7,35.9Zm2.9,1.3c-.8-.4-1.6-.7-2.4-1.1,1.8-2.1,3.9-5.2,4.1-8.5a3.2,3.2,0,0,0-2.7-3.5,4.227,4.227,0,0,0-4.5,2.4,4.518,4.518,0,0,0-4.4-1.6,3.534,3.534,0,0,0-2.8,2.7c-.3,1.9,1,4,3.7,5.6a61.17,61.17,0,0,0,5.6,3.1c-.9,1-1.6,1.6-1.9,1.9-1.1-.4-7.3-2.8-11.5-6.9-3.3-3.2-4.5-6.7-3.4-9.7a6.982,6.982,0,0,1,6.3-4.3h.6c4.4,0,6.1,2.6,6.2,2.7l.3.4.2-.5a8.588,8.588,0,0,1,9.3-4.7,6.586,6.586,0,0,1,5.1,3.7c1.3,2.8.7,6.7-1.7,10.6A30.494,30.494,0,0,1,83.6,37.2Zm40.8,7.5a91.289,91.289,0,0,1-40.3-7.2,34.964,34.964,0,0,0,6.2-7.6c2.5-4.1,3.1-8.1,1.7-11.1a6.975,6.975,0,0,0-5.5-4,9.131,9.131,0,0,0-9.7,4.6c-.7-.8-2.8-2.8-7-2.6A7.274,7.274,0,0,0,63,21.4c-1.2,3.2,0,7,3.5,10.3a36.918,36.918,0,0,0,11.9,7.1l.2.1.1-.1a22.842,22.842,0,0,0,2.2-2.2c.7.3,1.5.7,2.3,1a32.85,32.85,0,0,1-17,7.8C55.4,47,37.6,43.6,17.1,39.3c-19.1-3.9-28.7.6-32.8,2.6l.1.2.1.2c4.1-1.8,13.6-6.4,32.3-2.4,17,3.6,32.2,6.5,43.1,6.5a43.034,43.034,0,0,0,6.2-.4,34.491,34.491,0,0,0,17.5-8.1c2.2.9,4.7,1.9,7.5,2.9a89.512,89.512,0,0,0,33.3,4.5v-.6Z" fill="#c6c6c6"/>
            <path id="Path_43" d="M80.8,35.8a51.782,51.782,0,0,1-5.7-3.1c-2.5-1.5-3.7-3.4-3.4-5.1A3.009,3.009,0,0,1,74,25.3a2.2,2.2,0,0,1,.8-.1,4.364,4.364,0,0,1,3.3,1.9l.3.5.2-.6a3.487,3.487,0,0,1,4.1-2.5,2.682,2.682,0,0,1,2.2,3C84.7,30.7,82.5,33.7,80.8,35.8Zm2.9,1.3c-.8-.4-1.6-.7-2.4-1.1,1.8-2.1,3.9-5.2,4.1-8.5A3.2,3.2,0,0,0,82.7,24a4.227,4.227,0,0,0-4.5,2.4,4.518,4.518,0,0,0-4.4-1.6A3.534,3.534,0,0,0,71,27.5c-.3,1.9,1,4,3.7,5.6a61.17,61.17,0,0,0,5.6,3.1c-.9,1-1.6,1.6-1.9,1.9-1.1-.4-7.3-2.8-11.5-6.9-3.3-3.2-4.5-6.7-3.4-9.7a6.982,6.982,0,0,1,6.3-4.3h.6c4.4,0,6.1,2.6,6.2,2.7l.3.4.2-.5a8.588,8.588,0,0,1,9.3-4.7,6.586,6.586,0,0,1,5.1,3.7c1.3,2.8.7,6.7-1.7,10.6A30.494,30.494,0,0,1,83.7,37.1Zm40.8,7.5a91.29,91.29,0,0,1-40.3-7.2,34.964,34.964,0,0,0,6.2-7.6c2.5-4.1,3.1-8.1,1.7-11.1a6.975,6.975,0,0,0-5.5-4,9.131,9.131,0,0,0-9.7,4.6c-.7-.8-2.8-2.8-7-2.6a7.274,7.274,0,0,0-6.8,4.6c-1.2,3.2,0,7,3.5,10.3a36.918,36.918,0,0,0,11.9,7.1l.2.1.1-.1A22.842,22.842,0,0,0,81,36.5c.7.3,1.5.7,2.3,1a32.85,32.85,0,0,1-17,7.8c-10.8,1.6-28.6-1.8-49.1-6.1-19-4-28.6.6-32.7,2.5l.1.3.1.2c4.1-1.9,13.5-6.4,32.3-2.5,17,3.6,32.2,6.5,43.1,6.5a43.034,43.034,0,0,0,6.2-.4,34.491,34.491,0,0,0,17.5-8.1c2.2.9,4.7,1.9,7.5,2.9a89.512,89.512,0,0,0,33.3,4.5Z" fill="#c3c3c3"/>
            <path id="Path_44" d="M80.9,35.7a51.782,51.782,0,0,1-5.7-3.1c-2.5-1.5-3.7-3.4-3.4-5.1a3.009,3.009,0,0,1,2.3-2.3,2.2,2.2,0,0,1,.8-.1A4.364,4.364,0,0,1,78.2,27l.3.5.2-.6a3.487,3.487,0,0,1,4.1-2.5,2.682,2.682,0,0,1,2.2,3C84.8,30.6,82.7,33.6,80.9,35.7ZM83.8,37c-.8-.4-1.6-.7-2.4-1.1,1.8-2.1,3.9-5.2,4.1-8.5a3.2,3.2,0,0,0-2.7-3.5,4.227,4.227,0,0,0-4.5,2.4,4.518,4.518,0,0,0-4.4-1.6,3.534,3.534,0,0,0-2.8,2.7c-.3,1.9,1,4,3.7,5.6a61.17,61.17,0,0,0,5.6,3.1c-.9,1-1.6,1.6-1.9,1.9-1.1-.4-7.3-2.8-11.5-6.9-3.3-3.2-4.5-6.7-3.4-9.7a6.982,6.982,0,0,1,6.3-4.3h.6c4.4,0,6.1,2.6,6.2,2.7l.3.4.2-.5A8.588,8.588,0,0,1,86.5,15a6.586,6.586,0,0,1,5.1,3.7c1.3,2.8.7,6.7-1.7,10.6A30.5,30.5,0,0,1,83.8,37Zm40.9,7.4a91.29,91.29,0,0,1-40.3-7.2,34.964,34.964,0,0,0,6.2-7.6c2.5-4.1,3.1-8.1,1.7-11.1a6.975,6.975,0,0,0-5.5-4,9.131,9.131,0,0,0-9.7,4.6c-.7-.8-2.8-2.8-7-2.6a7.274,7.274,0,0,0-6.8,4.6c-1.2,3.2,0,7,3.5,10.3a36.918,36.918,0,0,0,11.9,7.1l.2.1.1-.1a22.842,22.842,0,0,0,2.2-2.2c.7.3,1.5.7,2.3,1a32.85,32.85,0,0,1-17,7.8C55.7,46.7,37.9,43.3,17.4,39c-19-4-28.6.6-32.7,2.5l-.1.4.1.2c4.1-1.9,13.5-6.4,32.3-2.5,17,3.6,32.2,6.5,43.1,6.5a43.033,43.033,0,0,0,6.2-.4,34.491,34.491,0,0,0,17.5-8.1c2.2.9,4.7,1.9,7.5,2.9A89.512,89.512,0,0,0,124.6,45Z" fill="#c1c1c1"/>
            <path id="Path_45" d="M81,35.5a51.782,51.782,0,0,1-5.7-3.1c-2.5-1.5-3.7-3.4-3.4-5.1A3.009,3.009,0,0,1,74.2,25a2.2,2.2,0,0,1,.8-.1,4.364,4.364,0,0,1,3.3,1.9l.3.5.2-.6a3.487,3.487,0,0,1,4.1-2.5,2.682,2.682,0,0,1,2.2,3C84.9,30.5,82.8,33.5,81,35.5Zm2.9,1.4c-.8-.4-1.6-.7-2.4-1.1,1.8-2.1,3.9-5.2,4.1-8.5a3.2,3.2,0,0,0-2.7-3.5,4.227,4.227,0,0,0-4.5,2.4A4.518,4.518,0,0,0,74,24.6a3.534,3.534,0,0,0-2.8,2.7c-.3,1.9,1,4,3.7,5.6A61.17,61.17,0,0,0,80.5,36c-.9,1-1.6,1.6-1.9,1.9-1.1-.4-7.3-2.8-11.5-6.9-3.3-3.2-4.5-6.7-3.4-9.7A6.982,6.982,0,0,1,70,17h.6c4.4,0,6.1,2.6,6.2,2.7l.3.4.2-.5a8.588,8.588,0,0,1,9.3-4.7,6.586,6.586,0,0,1,5.1,3.7c1.3,2.8.7,6.7-1.7,10.6A30.494,30.494,0,0,1,83.9,36.9Zm40.9,7.4a91.289,91.289,0,0,1-40.3-7.2,34.964,34.964,0,0,0,6.2-7.6c2.5-4.1,3.1-8.1,1.7-11.1a6.975,6.975,0,0,0-5.5-4A9.131,9.131,0,0,0,77.2,19c-.7-.8-2.8-2.8-7-2.6A7.274,7.274,0,0,0,63.4,21c-1.2,3.2,0,7,3.5,10.3a36.918,36.918,0,0,0,11.9,7.1l.2.1.1-.1a22.842,22.842,0,0,0,2.2-2.2c.7.3,1.5.7,2.3,1a32.85,32.85,0,0,1-17,7.8C55.8,46.6,38,43.2,17.5,38.9c-19-4-28.6.6-32.7,2.5l.1.3.1.2c4.1-1.9,13.5-6.4,32.3-2.5,17,3.6,32.2,6.5,43.1,6.5a43.034,43.034,0,0,0,6.2-.4,34.491,34.491,0,0,0,17.5-8.1c2.2.9,4.7,1.9,7.5,2.9a89.512,89.512,0,0,0,33.3,4.5Z" fill="#bfbfbf"/>
            <path id="Path_46" d="M81.1,35.4a51.782,51.782,0,0,1-5.7-3.1c-2.5-1.5-3.7-3.4-3.4-5.1a3.009,3.009,0,0,1,2.3-2.3,2.2,2.2,0,0,1,.8-.1,4.364,4.364,0,0,1,3.3,1.9l.3.5.2-.6A3.487,3.487,0,0,1,83,24.1a2.682,2.682,0,0,1,2.2,3C85,30.3,82.9,33.4,81.1,35.4ZM84,36.8c-.8-.4-1.6-.7-2.4-1.1,1.8-2.1,3.9-5.2,4.1-8.5A3.2,3.2,0,0,0,83,23.7a4.227,4.227,0,0,0-4.5,2.4,4.518,4.518,0,0,0-4.4-1.6,3.534,3.534,0,0,0-2.8,2.7c-.3,1.9,1,4,3.7,5.6a61.17,61.17,0,0,0,5.6,3.1c-.9,1-1.6,1.6-1.9,1.9-1.1-.4-7.3-2.8-11.5-6.9-3.3-3.2-4.5-6.7-3.4-9.7a6.982,6.982,0,0,1,6.3-4.3h.6c4.4,0,6.1,2.6,6.2,2.7l.3.4.2-.5a8.588,8.588,0,0,1,9.3-4.7,6.586,6.586,0,0,1,5.1,3.7c1.3,2.8.7,6.7-1.7,10.6A30.494,30.494,0,0,1,84,36.8Zm40.9,7.4A91.289,91.289,0,0,1,84.6,37a34.964,34.964,0,0,0,6.2-7.6c2.5-4.1,3.1-8.1,1.7-11.1a6.975,6.975,0,0,0-5.5-4,9.131,9.131,0,0,0-9.7,4.6c-.7-.8-2.8-2.8-7-2.6-3.3.2-5.9,1.9-6.9,4.6-1.2,3.2,0,7,3.5,10.3a36.918,36.918,0,0,0,11.9,7.1l.2.1.1-.1a22.842,22.842,0,0,0,2.2-2.2c.7.3,1.5.7,2.3,1a32.85,32.85,0,0,1-17,7.8c-10.9,1.7-28.7-1.7-49.2-6-19-4-28.6.6-32.7,2.5l.1.3.2.2c4.1-1.9,13.5-6.4,32.3-2.5,17,3.6,32.2,6.5,43.1,6.5a43.033,43.033,0,0,0,6.2-.4,34.491,34.491,0,0,0,17.5-8.1c2.2.9,4.7,1.9,7.5,2.9a89.512,89.512,0,0,0,33.3,4.5v-.6Z" fill="#bdbdbd"/>
            <path id="Path_47" d="M81.2,35.3a51.782,51.782,0,0,1-5.7-3.1c-2.5-1.5-3.7-3.4-3.4-5.1a3.009,3.009,0,0,1,2.3-2.3,2.2,2.2,0,0,1,.8-.1,4.364,4.364,0,0,1,3.3,1.9l.3.5.2-.6A3.487,3.487,0,0,1,83.1,24a2.682,2.682,0,0,1,2.2,3C85.1,30.2,83,33.3,81.2,35.3Zm2.9,1.3c-.8-.4-1.6-.7-2.4-1.1,1.8-2.1,3.9-5.2,4.1-8.5a3.2,3.2,0,0,0-2.7-3.5,4.227,4.227,0,0,0-4.5,2.4,4.518,4.518,0,0,0-4.4-1.6A3.534,3.534,0,0,0,71.4,27c-.3,1.9,1,4,3.7,5.6a61.17,61.17,0,0,0,5.6,3.1c-.9,1-1.6,1.6-1.9,1.9-1.1-.4-7.3-2.8-11.5-6.9C64,27.5,62.8,24,63.9,21a6.982,6.982,0,0,1,6.3-4.3h.6c4.4,0,6.1,2.6,6.2,2.7l.3.4.2-.5a8.588,8.588,0,0,1,9.3-4.7,6.586,6.586,0,0,1,5.1,3.7c1.3,2.8.7,6.7-1.7,10.6A25.358,25.358,0,0,1,84.1,36.6ZM125,44.1a91.29,91.29,0,0,1-40.3-7.2,34.964,34.964,0,0,0,6.2-7.6c2.5-4.1,3.1-8.1,1.7-11.1a6.975,6.975,0,0,0-5.5-4,9.131,9.131,0,0,0-9.7,4.6c-.7-.8-2.8-2.8-7-2.6a7.274,7.274,0,0,0-6.8,4.6c-1.2,3.2,0,7,3.5,10.3A36.918,36.918,0,0,0,79,38.2l.2.1.1-.1A22.842,22.842,0,0,0,81.5,36c.7.3,1.5.7,2.3,1a32.85,32.85,0,0,1-17,7.8C56,46.4,38.2,43,17.7,38.7c-19-4-28.6.6-32.7,2.5l.1.3.1.2c4-1.8,13.4-6.3,32.2-2.4,17,3.6,32.2,6.6,43.1,6.6a43.033,43.033,0,0,0,6.2-.4,34.491,34.491,0,0,0,17.5-8.1c2.2.9,4.7,1.9,7.5,2.9A89.512,89.512,0,0,0,125,44.8Z" fill="#bababa"/>
            <path id="Path_48" d="M81.4,35.2a51.782,51.782,0,0,1-5.7-3.1c-2.5-1.5-3.7-3.4-3.4-5.1a3.009,3.009,0,0,1,2.3-2.3,2.2,2.2,0,0,1,.8-.1,4.364,4.364,0,0,1,3.3,1.9l.3.5.2-.6a3.487,3.487,0,0,1,4.1-2.5,2.682,2.682,0,0,1,2.2,3C85.2,30.1,83.1,33.2,81.4,35.2Zm2.9,1.3c-.8-.4-1.6-.7-2.4-1.1,1.8-2.1,3.9-5.2,4.1-8.5a3.2,3.2,0,0,0-2.7-3.5,4.227,4.227,0,0,0-4.5,2.4,4.518,4.518,0,0,0-4.4-1.6,3.534,3.534,0,0,0-2.8,2.7c-.3,1.9,1,4,3.7,5.6a61.17,61.17,0,0,0,5.6,3.1c-.9,1-1.6,1.6-1.9,1.9-1.1-.4-7.3-2.8-11.5-6.9-3.3-3.2-4.5-6.7-3.4-9.7a6.982,6.982,0,0,1,6.3-4.3H71c4.4,0,6.1,2.6,6.2,2.7l.3.4.2-.5A8.588,8.588,0,0,1,87,14.5a6.586,6.586,0,0,1,5.1,3.7c1.3,2.8.7,6.7-1.7,10.6A30.5,30.5,0,0,1,84.3,36.5ZM125.1,44a91.289,91.289,0,0,1-40.3-7.2A34.964,34.964,0,0,0,91,29.2c2.5-4.1,3.1-8.1,1.7-11.1a6.975,6.975,0,0,0-5.5-4,9.131,9.131,0,0,0-9.7,4.6c-.7-.8-2.8-2.8-7-2.6a7.274,7.274,0,0,0-6.8,4.6c-1.2,3.2,0,7,3.5,10.3a36.918,36.918,0,0,0,11.9,7.1l.2.1.1-.1a22.842,22.842,0,0,0,2.2-2.2c.7.3,1.5.7,2.3,1a32.85,32.85,0,0,1-17,7.8c-10.8,1.6-28.6-1.8-49.1-6.1-19-4-28.6.6-32.7,2.5l.1.3.1.2c4.1-1.9,13.5-6.4,32.3-2.5,17,3.6,32.2,6.5,43.1,6.5a43.034,43.034,0,0,0,6.2-.4,34.491,34.491,0,0,0,17.5-8.1c2.2.9,4.7,1.9,7.5,2.9a89.512,89.512,0,0,0,33.3,4.5Z" fill="#b8b8b8"/>
          </g>
          <path id="Path_49" d="M125.1,44a91.289,91.289,0,0,1-40.3-7.2A34.964,34.964,0,0,0,91,29.2c2.5-4.1,3.1-8.1,1.7-11.1a6.975,6.975,0,0,0-5.5-4,9.131,9.131,0,0,0-9.7,4.6c-.7-.8-2.8-2.8-7-2.6a7.274,7.274,0,0,0-6.8,4.6c-1.2,3.2,0,7,3.5,10.3a36.918,36.918,0,0,0,11.9,7.1l.2.1.1-.1a22.842,22.842,0,0,0,2.2-2.2c.7.3,1.5.7,2.3,1a32.85,32.85,0,0,1-17,7.8c-10.8,1.6-28.6-1.8-49.1-6.1-19-4-28.6.6-32.7,2.5l.1.3.1.2c4.1-1.9,13.5-6.4,32.3-2.5,17,3.6,32.2,6.5,43.1,6.5a43.034,43.034,0,0,0,6.2-.4,34.491,34.491,0,0,0,17.5-8.1c2.2.9,4.7,1.9,7.5,2.9a89.512,89.512,0,0,0,33.3,4.5ZM81.4,35.2a51.782,51.782,0,0,1-5.7-3.1c-2.5-1.5-3.7-3.4-3.4-5.1a3.009,3.009,0,0,1,2.3-2.3,2.2,2.2,0,0,1,.8-.1,4.364,4.364,0,0,1,3.3,1.9l.3.5.2-.6a3.487,3.487,0,0,1,4.1-2.5,2.682,2.682,0,0,1,2.2,3C85.2,30.1,83.1,33.2,81.4,35.2Zm2.9,1.3c-.8-.4-1.6-.7-2.4-1.1,1.8-2.1,3.9-5.2,4.1-8.5a3.2,3.2,0,0,0-2.7-3.5,4.227,4.227,0,0,0-4.5,2.4,4.518,4.518,0,0,0-4.4-1.6,3.534,3.534,0,0,0-2.8,2.7c-.3,1.9,1,4,3.7,5.6a61.17,61.17,0,0,0,5.6,3.1c-.9,1-1.6,1.6-1.9,1.9-1.1-.4-7.3-2.8-11.5-6.9-3.3-3.2-4.5-6.7-3.4-9.7a6.982,6.982,0,0,1,6.3-4.3H71c4.4,0,6.1,2.6,6.2,2.7l.3.4.2-.5A8.588,8.588,0,0,1,87,14.5a6.586,6.586,0,0,1,5.1,3.7c1.3,2.8.7,6.7-1.7,10.6A30.5,30.5,0,0,1,84.3,36.5Z" fill="#ff1c1f"/>
        </g>
        <g id="Group_7">
          <circle id="Ellipse_1" cx="0.9" cy="0.9" r="0.9" transform="translate(58.6 31.1)" fill="#ff1c1f"/>
          <path id="Path_50" d="M62.3,15.3c-1.3.3-1.5.5-1.8,1.8-.3-1.3-.5-1.5-1.8-1.8,1.3-.3,1.5-.5,1.8-1.8C60.7,14.8,61,15,62.3,15.3Z" fill="#ff1c1f"/>
          <path id="Path_51" d="M74.5,10.8c-.6.1-.7.2-.8.8-.1-.6-.2-.6-.8-.8.6-.1.7-.2.8-.8C73.8,10.6,73.9,10.7,74.5,10.8Z" fill="#ff1c1f"/>
          <circle id="Ellipse_2" cx="2" cy="2" r="2" transform="translate(80.9 -6.3)" fill="#ff1c1f"/>
          <ellipse id="Ellipse_3" cx="2.2" cy="2.1" rx="2.2" ry="2.1" transform="translate(88.3 3.5)" fill="#ff1c1f"/>
          <path id="Path_52" d="M99.9,23.9c-.9.2-1.1.3-1.3,1.3-.2-.9-.3-1.1-1.3-1.3.9-.2,1.1-.3,1.3-1.3C98.8,23.5,98.9,23.7,99.9,23.9Z" fill="#ff1c1f"/>
          <circle id="Ellipse_4" cx="0.9" cy="0.9" r="0.9" transform="translate(104.7 25.3)" fill="#ff1c1f"/>
          <circle id="Ellipse_5" cx="1.5" cy="1.5" r="1.5" transform="translate(96.2 32.6)" fill="#ff1c1f"/>
          <path id="Path_53" d="M83.8,8.5c-.7.1-.8.2-.9.9-.1-.6-.2-.8-.9-.9.7-.1.8-.2.9-.9C83,8.3,83.1,8.4,83.8,8.5Z" fill="#ff1c1f"/>
          <path id="Path_54" d="M100.5,13.9c-1.3.3-1.5.5-1.8,1.8-.3-1.3-.5-1.5-1.8-1.8,1.3-.3,1.5-.5,1.8-1.8C99,13.4,99.2,13.6,100.5,13.9Z" fill="#ff1c1f"/>
          <circle id="Ellipse_6" cx="1.5" cy="1.5" r="1.5" transform="translate(75.9 -0.6)" fill="#ff1c1f"/>
          <circle id="Ellipse_7" cx="1.9" cy="1.9" r="1.9" transform="translate(51.2 22.2)" fill="#ff1c1f"/>
          <path id="Path_55" d="M69.8-.6c-.8.2-1,.3-1.1,1.1-.2-.8-.3-1-1.1-1.1.8-.2,1-.3,1.1-1.1C68.9-.9,69-.7,69.8-.6Z" fill="#ff1c1f"/>
          <path id="Path_56" d="M55.1,37.3c-.9.2-1.1.3-1.3,1.3-.2-.9-.3-1.1-1.3-1.3.9-.2,1.1-.3,1.3-1.3C54.1,36.9,54.2,37.1,55.1,37.3Z" fill="#ff1c1f"/>
          <path id="Path_57" d="M69.9,39.7c-1,.2-1.2.4-1.4,1.4-.2-1-.4-1.2-1.4-1.4,1-.2,1.2-.4,1.4-1.4C68.7,39.4,68.8,39.5,69.9,39.7Z" fill="#ff1c1f"/>
          <circle id="Ellipse_8" cx="1.4" cy="1.4" r="1.4" transform="translate(65.6 5.7)" fill="#ff1c1f"/>
        </g>
      </g>
    </g>
    <g id="Group_3" data-name="Group 3">
      <g id="Group_2" data-name="Group 2">
        <path id="Path_1" data-name="Path 1" d="M53.2,1.7a129.327,129.327,0,0,1-3.8,20.7,39.624,39.624,0,0,1-5.9,12.7c-2,2.5-4,4.2-6.3,5a5.811,5.811,0,0,1-5-.1,4.67,4.67,0,0,1-2.4-2.6c-1-2.5-1-5.6-.1-9.2a21.876,21.876,0,0,1,3.1-6.6,5.888,5.888,0,0,1,1.7-1.8,1.7,1.7,0,0,1,1,0,1,1,0,0,1,.5.4,6.457,6.457,0,0,1-.9,2.6C32.7,28,32.1,32,33.3,35a4.1,4.1,0,0,0,1.8,2.1,3.479,3.479,0,0,0,3,.1c2.2-.9,4.1-3.2,5.5-7a96.667,96.667,0,0,0,4.9-18.1c.6-3.5,1-6.3,1.2-8.6a78.277,78.277,0,0,0-7.8,4.9,7.689,7.689,0,0,1-1.5,1,1.483,1.483,0,0,1-1.3,0,.9.9,0,0,1-.6-.6c-.3-.6.2-1.3,1.2-2.1A68.394,68.394,0,0,1,55.3-1.9,15.979,15.979,0,0,1,58.9-3c.7,0,1.2.2,1.3.6.3.8-.3,1.5-1.7,2.1a10.719,10.719,0,0,1-1.7.6c-.7.3-1.3.5-1.8.7A8.274,8.274,0,0,0,53.2,1.7Z" fill="url(#linear-gradient)"/>
      </g>
    </g>
    <g id="Group_5-2" data-name="Group 5">
      <g id="Group_4" data-name="Group 4">
        <path id="Path_2" data-name="Path 2" d="M115.4,15.8a101.105,101.105,0,0,0-10.9,7.8,2.769,2.769,0,0,0-.1.9,43.6,43.6,0,0,0-.7,13.7,1.409,1.409,0,0,1-.8,1.8,1.6,1.6,0,0,1-1.5-.1,1.549,1.549,0,0,1-.8-.8,10.9,10.9,0,0,1-.4-3,29.4,29.4,0,0,1,0-4.2c0-.5.2-1.8.4-4.1.1-.5.1-1.1.2-1.7-.3.3-.8.7-1.4,1.2a3.508,3.508,0,0,1-.8.5c-.6.2-1,0-1.3-.7a1.271,1.271,0,0,1,.3-1.4,15.625,15.625,0,0,1,1.7-1.5c.9-.7,1.6-1.3,2.1-1.7.2-.7.4-2.1.8-4.2.1-.4.3-1.5.8-3.4a83.791,83.791,0,0,0,2.4-11.4,25.867,25.867,0,0,1,.5-3.4A1.981,1.981,0,0,1,107-1c.9-.4,1.5-.2,1.7.5.6,1.6-.3,7-2.9,16.3a16.3,16.3,0,0,0-.7,3.8l1.3-.9c3.5-2.4,6.7-4.6,9.5-6.5.9-4.1,2.1-8.8,3.7-14a6.949,6.949,0,0,0,.4-1.7c.2-.8.5-1.4,1-1.6a1.275,1.275,0,0,1,1.2,0,2.336,2.336,0,0,1,.7.7,4.711,4.711,0,0,1-.2,2.8c-.1.3-.5,1.6-1.1,3.9a76.058,76.058,0,0,0-2.1,7.9,6.575,6.575,0,0,1,1.2-.6c1.5-.6,2.3-.6,2.6,0A1.579,1.579,0,0,1,123,11a2.189,2.189,0,0,1-1,.9l-1.1.4a18.144,18.144,0,0,0-2,1c-1.7,7.4-2.3,13.5-1.7,18.4.1,1.1-.2,1.8-.8,2a2.1,2.1,0,0,1-1.7-.2,2.189,2.189,0,0,1-.9-1C113.5,31.3,113.9,25.6,115.4,15.8Z" fill="url(#linear-gradient-2)"/>
      </g>
    </g>
  </g>
</svg>
